<?xml version="1.0" ?><svg id="Layer_1" style="enable-background:new 0 0 64 64;" version="1.1" viewBox="0 0 64 64" xml:space="preserve" xmlns="http://www.w3.org/2000/svg" xmlns:xlink="http://www.w3.org/1999/xlink"><style type="text/css">
	.st0{fill:#707070ff;}
</style>
<g><rect  class="st0" height="3.375" width="3.52148" x="23.69995" y="4.7276"/><rect  class="st0" height="3.375" width="3.52148" x="30.24194" y="4.7276"/><rect  class="st0" height="3.375" width="3.52148" x="36.78394" y="4.7276"/><rect class="st0" height="3.375" width="3.52148" x="23.69995" y="10.75592"/><rect  class="st0" height="3.375" width="3.52148" x="30.24194" y="10.75592"/><rect  class="st0" height="3.375" width="3.52148" x="36.78394" y="10.75592"/><rect class="st0" height="3.375" width="3.52148" x="23.69995" y="16.78522"/><rect class="st0" height="3.375" width="3.52148" x="30.24194" y="16.78522"/><rect class="st0" height="3.375" width="3.52148" x="36.78394" y="16.78522"/><rect class="st0" height="3.375" width="3.52148" x="23.69995" y="22.81354"/><rect class="st0" height="3.375" width="3.52148" x="30.24194" y="22.81354"/><rect class="st0" height="3.375" width="3.52148" x="36.78394" y="22.81354"/><rect class="st0" height="3.375" width="3.52148" x="23.69995" y="28.84186"/><rect class="st0" height="3.375" width="3.52148" x="30.24194" y="28.84186"/><rect class="st0" height="3.375" width="3.52148" x="36.78394" y="28.84186"/><rect class="st0" height="3.375" width="3.52148" x="23.69995" y="34.87018"/><rect class="st0" height="3.375" width="3.52148" x="30.24194" y="34.87018"/><rect class="st0" height="3.375" width="3.52148" x="36.78394" y="34.87018"/><rect class="st0" height="3.375" width="3.52148" x="23.69995" y="40.8985"/><rect class="st0" height="3.375" width="3.52148" x="30.24194" y="40.8985"/><rect class="st0" height="3.375" width="3.52148" x="36.78394" y="40.8985"/><path class="st0" d="M45,21.03998V0H18.67004v21.03998H0V64h64V21.03998H45.34009z M8,58.53003H4.81006v-3.37h3.52002V58.53003z    M8,52.79999H4.81006v-3.37h3.52002V52.79999z M8,47.07001H4.81006v-3.37h3.52002V47.07001z M8,41.34003H4.81006   v-3.37h3.52002V41.34003z M8,35.60999H4.81006v-3.37h3.52002V35.60999z M8,29.88H4.81006v-3.37h3.52002V29.88z    M14,58.53003H11.3501v-3.37h3.52002V58.53003z M14,52.79999H11.3501v-3.37h3.52002V52.79999z M14,47.07001   H11.3501v-3.37h3.52002V47.07001z M14,41.34003H11.3501v-3.37h3.52002V41.34003z M14,35.60999H11.3501v-3.37h3.52002   V35.60999z M14,29.88H11.3501v-3.37h3.52002V29.88z M43,62h-6.79004V51.35004h-9.09009V62h-6.78992V2h22.67004V62z    M52,58.53003h-3.52002v-3.37h3.52002V58.53003z M52,52.79999h-3.52002v-3.37h3.52002V52.79999z M52,47.07001   h-3.52002v-3.37h3.52002V47.07001z M52,41.34003h-3.52002v-3.37h3.52002V41.34003z M52,35.60999h-3.52002v-3.37   h3.52002V35.60999z M52,29.88h-3.52002v-3.37h3.52002V29.88z M59,58.53003h-3.5199v-3.37h3.5199V58.53003z    M59,52.79999h-3.5199v-3.37h3.5199V52.79999z M59,47.07001h-3.5199v-3.37h3.5199V47.07001z M59,41.34003   h-3.5199v-3.37h3.5199V41.34003z M59,35.60999h-3.5199v-3.37h3.5199V35.60999z M59,29.88h-3.5199v-3.37h3.5199V29.88z"/> </g></svg>