<svg width="500" height="700" viewBox="0 0 500 500" xmlns="http://www.w3.org/2000/svg">
<g fill="none" stroke="white" stroke-width="2">
<!-- tags price -->
<g transform="translate(20, -70) scale(0.6)">
	<path id="Tag" d="M70.046,0h-27.4c-0.5,0-1,0.2-1.4,0.6l-40.6,40.5c-0.8,0.8-0.8,2.1,0,2.8l27.4,27.5c0.8,0.8,2,0.8,2.8,0
		l40.5-40.5c0.4-0.4,0.6-0.9,0.6-1.4V2C72.046,0.9,71.146,0,70.046,0z M68.046,28.6l-38.5,38.6l-24.7-24.6L43.446,4h24.6V28.6z
		 M54.046,9.9c-4.4,0-8,3.6-8,8s3.6,8,8,8s8-3.6,8-8S58.446,9.9,54.046,9.9z M56.846,20.8c-1.5,1.5-4.2,1.5-5.7,0
		c-1.6-1.6-1.6-4.1,0-5.7s4.1-1.6,5.7,0C58.446,16.7,58.446,19.2,56.846,20.8z"/>
</g>
<!-- tags price -->
<g transform="translate(435, -70) scale(0.6)" fill="none" stroke="white" stroke-width="2">
  	<path id="Tag" d="M70.046,0h-27.4c-0.5,0-1,0.2-1.4,0.6l-40.6,40.5c-0.8,0.8-0.8,2.1,0,2.8l27.4,27.5c0.8,0.8,2,0.8,2.8,0
		l40.5-40.5c0.4-0.4,0.6-0.9,0.6-1.4V2C72.046,0.9,71.146,0,70.046,0z M68.046,28.6l-38.5,38.6l-24.7-24.6L43.446,4h24.6V28.6z
		 M54.046,9.9c-4.4,0-8,3.6-8,8s3.6,8,8,8s8-3.6,8-8S58.446,9.9,54.046,9.9z M56.846,20.8c-1.5,1.5-4.2,1.5-5.7,0
		c-1.6-1.6-1.6-4.1,0-5.7s4.1-1.6,5.7,0C58.446,16.7,58.446,19.2,56.846,20.8z"/>
  </g>
  <!-- tags-price -->
  <g transform="translate(217.50, -70) scale(0.6)" fill="none" stroke="white" stroke-width="2">
  	<path id="Tag" d="M70.046,0h-27.4c-0.5,0-1,0.2-1.4,0.6l-40.6,40.5c-0.8,0.8-0.8,2.1,0,2.8l27.4,27.5c0.8,0.8,2,0.8,2.8,0
		l40.5-40.5c0.4-0.4,0.6-0.9,0.6-1.4V2C72.046,0.9,71.146,0,70.046,0z M68.046,28.6l-38.5,38.6l-24.7-24.6L43.446,4h24.6V28.6z
		 M54.046,9.9c-4.4,0-8,3.6-8,8s3.6,8,8,8s8-3.6,8-8S58.446,9.9,54.046,9.9z M56.846,20.8c-1.5,1.5-4.2,1.5-5.7,0
		c-1.6-1.6-1.6-4.1,0-5.7s4.1-1.6,5.7,0C58.446,16.7,58.446,19.2,56.846,20.8z"/>
  </g>
  <!-- tags price -->
<g transform="translate(20, 220) scale(0.6)">
	<path id="Tag" d="M70.046,0h-27.4c-0.5,0-1,0.2-1.4,0.6l-40.6,40.5c-0.8,0.8-0.8,2.1,0,2.8l27.4,27.5c0.8,0.8,2,0.8,2.8,0
		l40.5-40.5c0.4-0.4,0.6-0.9,0.6-1.4V2C72.046,0.9,71.146,0,70.046,0z M68.046,28.6l-38.5,38.6l-24.7-24.6L43.446,4h24.6V28.6z
		 M54.046,9.9c-4.4,0-8,3.6-8,8s3.6,8,8,8s8-3.6,8-8S58.446,9.9,54.046,9.9z M56.846,20.8c-1.5,1.5-4.2,1.5-5.7,0
		c-1.6-1.6-1.6-4.1,0-5.7s4.1-1.6,5.7,0C58.446,16.7,58.446,19.2,56.846,20.8z"/>
</g>
<!-- tags price -->
<g transform="translate(435, 220) scale(0.6)" fill="none" stroke="white" stroke-width="2">
  	<path id="Tag" d="M70.046,0h-27.4c-0.5,0-1,0.2-1.4,0.6l-40.6,40.5c-0.8,0.8-0.8,2.1,0,2.8l27.4,27.5c0.8,0.8,2,0.8,2.8,0
		l40.5-40.5c0.4-0.4,0.6-0.9,0.6-1.4V2C72.046,0.9,71.146,0,70.046,0z M68.046,28.6l-38.5,38.6l-24.7-24.6L43.446,4h24.6V28.6z
		 M54.046,9.9c-4.4,0-8,3.6-8,8s3.6,8,8,8s8-3.6,8-8S58.446,9.9,54.046,9.9z M56.846,20.8c-1.5,1.5-4.2,1.5-5.7,0
		c-1.6-1.6-1.6-4.1,0-5.7s4.1-1.6,5.7,0C58.446,16.7,58.446,19.2,56.846,20.8z"/>
  </g>
  <!-- tags-price -->
  <g transform="translate(217.50, 220) scale(0.6)" fill="none" stroke="white" stroke-width="2">
  	<path id="Tag" d="M70.046,0h-27.4c-0.5,0-1,0.2-1.4,0.6l-40.6,40.5c-0.8,0.8-0.8,2.1,0,2.8l27.4,27.5c0.8,0.8,2,0.8,2.8,0
		l40.5-40.5c0.4-0.4,0.6-0.9,0.6-1.4V2C72.046,0.9,71.146,0,70.046,0z M68.046,28.6l-38.5,38.6l-24.7-24.6L43.446,4h24.6V28.6z
		 M54.046,9.9c-4.4,0-8,3.6-8,8s3.6,8,8,8s8-3.6,8-8S58.446,9.9,54.046,9.9z M56.846,20.8c-1.5,1.5-4.2,1.5-5.7,0
		c-1.6-1.6-1.6-4.1,0-5.7s4.1-1.6,5.7,0C58.446,16.7,58.446,19.2,56.846,20.8z"/>
  </g>
  <!-- tags price -->
<g transform="translate(20, 530) scale(0.6)">
	<path id="Tag" d="M70.046,0h-27.4c-0.5,0-1,0.2-1.4,0.6l-40.6,40.5c-0.8,0.8-0.8,2.1,0,2.8l27.4,27.5c0.8,0.8,2,0.8,2.8,0
		l40.5-40.5c0.4-0.4,0.6-0.9,0.6-1.4V2C72.046,0.9,71.146,0,70.046,0z M68.046,28.6l-38.5,38.6l-24.7-24.6L43.446,4h24.6V28.6z
		 M54.046,9.9c-4.4,0-8,3.6-8,8s3.6,8,8,8s8-3.6,8-8S58.446,9.9,54.046,9.9z M56.846,20.8c-1.5,1.5-4.2,1.5-5.7,0
		c-1.6-1.6-1.6-4.1,0-5.7s4.1-1.6,5.7,0C58.446,16.7,58.446,19.2,56.846,20.8z"/>
</g>
<!-- tags price -->
<g transform="translate(435, 530) scale(0.6)" fill="none" stroke="white" stroke-width="2">
  	<path id="Tag" d="M70.046,0h-27.4c-0.5,0-1,0.2-1.4,0.6l-40.6,40.5c-0.8,0.8-0.8,2.1,0,2.8l27.4,27.5c0.8,0.8,2,0.8,2.8,0
		l40.5-40.5c0.4-0.4,0.6-0.9,0.6-1.4V2C72.046,0.9,71.146,0,70.046,0z M68.046,28.6l-38.5,38.6l-24.7-24.6L43.446,4h24.6V28.6z
		 M54.046,9.9c-4.4,0-8,3.6-8,8s3.6,8,8,8s8-3.6,8-8S58.446,9.9,54.046,9.9z M56.846,20.8c-1.5,1.5-4.2,1.5-5.7,0
		c-1.6-1.6-1.6-4.1,0-5.7s4.1-1.6,5.7,0C58.446,16.7,58.446,19.2,56.846,20.8z"/>
  </g>
  <!-- tags-price -->
  <g transform="translate(217.50, 530) scale(0.6)" fill="none" stroke="white" stroke-width="2">
  	<path id="Tag" d="M70.046,0h-27.4c-0.5,0-1,0.2-1.4,0.6l-40.6,40.5c-0.8,0.8-0.8,2.1,0,2.8l27.4,27.5c0.8,0.8,2,0.8,2.8,0
		l40.5-40.5c0.4-0.4,0.6-0.9,0.6-1.4V2C72.046,0.9,71.146,0,70.046,0z M68.046,28.6l-38.5,38.6l-24.7-24.6L43.446,4h24.6V28.6z
		 M54.046,9.9c-4.4,0-8,3.6-8,8s3.6,8,8,8s8-3.6,8-8S58.446,9.9,54.046,9.9z M56.846,20.8c-1.5,1.5-4.2,1.5-5.7,0
		c-1.6-1.6-1.6-4.1,0-5.7s4.1-1.6,5.7,0C58.446,16.7,58.446,19.2,56.846,20.8z"/>
  </g>
<!-- percha -->
<g transform="translate(100, 50)">
<defs><style>
      .cls-1 {
        fill: none;
        stroke: white;
        stroke-miterlimit: 10;
        stroke-width: 2px;           
      }
    </style></defs><path class="cls-1" d="M63.42,54.41h11.7c2.86,0,4.3-3.44,2.28-5.47l-29.13-15.83-29.13,15.83c-2.02,2.02-.6,5.47,2.28,5.47h11.42v-3.82c0-1.34,.54-2.54,1.42-3.41s2.06-1.42,3.4-1.42c3.02,0,5.47,2.45,5.47,5.47v3.19h.67"/><path class="cls-1" d="M32.84,50.59v3.82h10.28v-3.19c0-3.02-2.45-5.47-5.47-5.47-1.34,0-2.53,.54-3.4,1.42s-1.42,2.08-1.42,3.41Z"/><path class="cls-1" d="M43.78,25.79c0-2.48,2.01-4.49,4.49-4.49s4.49,2.01,4.49,4.49-2.01,4.49-4.49,4.49v3.33"/><path class="cls-1" d="M43.13,66.72v7.89c0,2.6,2.11,4.71,4.71,4.71h11.16c2.6,0,4.71-2.11,4.71-4.71v-24.14c0-2.6-2.11-4.71-4.71-4.71h-20.93"/><path class="cls-1" d="M32.84,50.59v12.27c0,1.92,1.56,3.48,3.48,3.48h6.8v-15.11c0-3.02-2.45-5.47-5.47-5.47-1.34,0-2.53,.54-3.4,1.42s-1.42,2.08-1.42,3.41Z"/>
    </g>
  </g>
  <!-- interior mujer -->
  <g transform="translate(315, 60)">
  <path fill="none" stroke="white" d="M64,51a1,1,0,0,1,1,1v8a1,1,0,0,1-.89,1H64L49.29,75.7a1,1,0,0,1-.7.29H39.41a1,1,0,0,1-.7-.29L24,61a1,1,0,0,1-1-1V52a1,1,0,0,1,1-1ZM60.17,62H27.83l12,12h8.35ZM25,59H63V57H60V55h3V53H25v2h3v2H25Zm8-4v2H30V55Zm5,0v2H35V55Zm5,0v2H40V55Zm5,0v2H45V55Zm5,0v2H50V55Zm5,0v2H55V55ZM32,12a1,1,0,0,1,1,1V24.48a8,8,0,0,1,3.08,1.23l6.81,4.55a2,2,0,0,0,2.22,0l6.81-4.55A8,8,0,0,1,55,24.48V13a1,1,0,0,1,1-1h4a1,1,0,0,1,1,1V25.78L65,28V42l-5.28,2.94a8,8,0,0,1-7.47.18l-7.36-3.67a2,2,0,0,0-1.78,0l-7.36,3.67A7.9,7.9,0,0,1,28.28,45L23,42V28l4-2.22V13a1,1,0,0,1,1-1ZM63,37H25v3.83l4.25,2.37a6,6,0,0,0,5.6.13l7.36-3.67a4,4,0,0,1,3.58,0l7.36,3.67a6,6,0,0,0,5.6-.13L63,40.83ZM28.76,27.11,25,29.18V30h3v2H25v2H63V32H60V30h3v-.82l-3.73-2.07a6,6,0,0,0-6.24.26l-6.81,4.55a4,4,0,0,1-4.44,0L35,27.37A6,6,0,0,0,28.76,27.11ZM33,30v2H30V30Zm5,0v2H35V30Zm15,0v2H50V30Zm5,0v2H55V30ZM31,14H29v10.8a7.67,7.67,0,0,1,2-.42Zm28,0H57V24.39a7.76,7.76,0,0,1,2,.42Z"/> 
  </g>
  <!-- jacket -->
  <g transform="translate(100, 350)">
  <path stroke="white" fill="none" d="M53.93,13l11.34,2.83a6,6,0,0,1,4.19,5L74.87,73h0v.1a1,1,0,0,1-.13.51l-.07.11a1,1,0,0,1-.68.38h-.07L61,75h-.11a1,1,0,0,1-.94-.93V74h0l-.37-5H46a2,2,0,0,1-1.74-1h-.53A2,2,0,0,1,42,69H28.54l-.49,4.48V74a1,1,0,0,1-.94.93H27l-12.94-.86H14A1,1,0,0,1,13.13,73l5.43-52.54a6,6,0,0,1,4.09-4.77L34.15,13l.3.84c1.62,4.61,5.1,7.25,9.55,7.25,4.27,0,7.86-2.72,9.61-7.26l.32-.83Zm5.49,3.43C57.75,21.71,53.86,26.21,48,27.61V66H63V44h2V67a1,1,0,0,1,0,.24V68a1,1,0,0,1-1,1H61.56l.28,3.75,10.85-1.43L67.47,21.05a4,4,0,0,0-2.75-3.29Zm-30.86-.07-5.39,1.25a4,4,0,0,0-2.63,3.14V21L15.25,71.88l11,.75L26.56,69H23a1,1,0,0,1-1-.89V67a1,1,0,0,1,1-1H40V27.59A16.65,16.65,0,0,1,28.56,16.37ZM23,39a1,1,0,0,1,1,1l.18,22.08a1,1,0,0,1-2-.08L22,39.93A1,1,0,0,1,23,39ZM44,58a2,2,0,1,0,2,2A2,2,0,0,0,44,58Zm15-7a1,1,0,0,1,1,1v1a1,1,0,0,1-1,1H53a1,1,0,0,1-1-1V52a1,1,0,0,1,1-1ZM35,51a1,1,0,0,1,1,1v1a1,1,0,0,1-1,1H29a1,1,0,0,1-1-1V52a1,1,0,0,1,1-1Zm9-2a2,2,0,1,0,2,2A2,2,0,0,0,44,49Zm0-9a2,2,0,1,0,2,2A2,2,0,0,0,44,40Zm20-1a1,1,0,0,1,1,1v2H63V40A1,1,0,0,1,64,39Zm-5-3a1,1,0,0,1,1,1v1a1,1,0,0,1-1,1H53a1,1,0,0,1-1-1V37a1,1,0,0,1,1-1ZM35,36a1,1,0,0,1,1,1v1a1,1,0,0,1-1,1H29a1,1,0,0,1-1-1V37a1,1,0,0,1,1-1Zm9-5a2,2,0,1,0,2,2A2,2,0,0,0,44,31ZM32.88,15.36l-1.41.33c1.68,4.8,5.33,8.41,10.2,9.31h.48A2,2,0,0,1,44,27a2,2,0,0,1,2-2l.31-.05a13.64,13.64,0,0,0,10.51-9.16l-1.68-.42C53,20.16,48.79,23.1,44,23.1,39,23.1,34.91,20.22,32.88,15.36Z"/>
  </g>
  <!-- pollera -->
  <g transform="translate(300, 350)">
  <path stroke="white" fill="none" d="M75.27,57.18c-1-1.82-2.12-3.63-3.14-5.47s-2-3.62-2.86-5.47c-1.07-2.22-2.1-4.47-3.06-6.75q-1.11-2.66-2-5.38c-.27-.84-.52-1.69-.76-2.54l-.23-.82h.05a1,1,0,0,0,1-1v-5a1,1,0,0,0-1-1h-1V20.93c0-.84-.37-1.18-1.22-1.18H28c-.86,0-1.2.31-1.21,1.18,0,.43,0,.85,0,1.28v1.54h-1a3.5,3.5,0,0,0-.19,7h0l0,.05c-.89,2.43-1.79,4.86-2.79,7.25-.46,1.11-1,2.21-1.48,3.29l-1,2.18C19.67,44.79,19,46,18.36,47.29S17,49.8,16.33,51c-.55,1-1.12,2-1.69,2.93s-1.24,2.09-1.87,3.13a.37.37,0,0,0,.05.5A11.13,11.13,0,0,0,15,59.45a22.5,22.5,0,0,0,4.15,2.11,19.64,19.64,0,0,0,4.31,1.23l.92.13a8.84,8.84,0,0,1-.25.88.52.52,0,0,0,.23.69A10.16,10.16,0,0,0,27.21,66a25.4,25.4,0,0,0,6.69,1.29A8,8,0,0,0,36.7,67a.39.39,0,0,1,.26,0,6.74,6.74,0,0,0,2.47.82c1.24.16,2.48.3,3.74.34a22.25,22.25,0,0,0,6-.47,5.88,5.88,0,0,0,2.42-1.08l.09-.06a.65.65,0,0,1,.43-.09c.57.07,1.15.15,1.72.2A17.48,17.48,0,0,0,61.39,66a15.62,15.62,0,0,0,3.24-1.63.26.26,0,0,0,.13-.37l-.09-.26-.15-.54.15,0c.93-.14,1.86-.24,2.78-.43A10.71,10.71,0,0,0,72,60.76a18.08,18.08,0,0,0,3.27-3.27A.31.31,0,0,0,75.27,57.18ZM59.91,21.74H60c.19,0,.25.08.25.31v1.7h-19v7h8v2h-10v-11Zm-1.64,5.51a1.5,1.5,0,1,1-1.5-1.5A1.5,1.5,0,0,1,58.27,27.25Zm-8.5,1.5a1.5,1.5,0,1,1,1.5-1.5A1.5,1.5,0,0,1,49.77,28.75Zm-12.5-7v2H28.82v-2Zm-3,5.51a1.5,1.5,0,1,1-1.5-1.5A1.5,1.5,0,0,1,34.27,27.25ZM69,60.17a14.28,14.28,0,0,1-3.4.81l-1.33.14c-.23,0-.33,0-.39-.28l-6-20.1a1,1,0,0,0-1.2-.68h0l-.12,0A.9.9,0,0,0,56,41.19l6.36,21.66.06.24a.29.29,0,0,1-.11.26,12.43,12.43,0,0,1-4.49,1.35,25.74,25.74,0,0,1-5.62-.2h-.08l-.17,0-.18-1.66-2.22-21a1,1,0,0,0-1-.9h-.09l-.14,0a.94.94,0,0,0-.73,1L49.9,64.58l.08.63a.24.24,0,0,1-.2.23l-.44.12a15.05,15.05,0,0,1-1.76.43,22.53,22.53,0,0,1-4.34.23,18,18,0,0,1-4-.45c-.32-.08-.62-.2-.93-.29S38,65.27,38,65l2.44-23.09V41.8a1,1,0,0,0-.9-.94h-.13a1,1,0,0,0-1,.89L36,64.9a.27.27,0,0,1-.25.27,7.1,7.1,0,0,1-2.39,0c-1.14-.15-2.27-.33-3.39-.56a14.24,14.24,0,0,1-3.45-1.13c-.19-.09-.23-.18-.17-.4l6-21.92v0a.86.86,0,0,0-.68-1l-.12,0a1,1,0,0,0-1,.72L25.88,57.37l-1,3.45-.09.17a30.26,30.26,0,0,1-3.11-.68,32.58,32.58,0,0,1-3.87-1.56,24.13,24.13,0,0,1-2.56-1.58.29.29,0,0,1,0-.27l1.08-1.85c.81-1.42,1.62-2.84,2.42-4.28.62-1.11,1.24-2.22,1.81-3.35,1-2.05,2.06-4.09,3-6.16q1.21-2.64,2.27-5.34c.36-.92.69-1.84,1-2.77l.84-2.4h9.57v3a1,1,0,0,0,1,1h12a1,1,0,0,0,1-1v-3h9.82l.31,1.07c.28,1,.57,1.93.88,2.88.43,1.3.87,2.61,1.39,3.88.8,2,1.63,4,2.53,5.93s1.92,4,3,5.93c.49.92,1,1.84,1.5,2.74l1.54,2.73.24.41.49.83A10.46,10.46,0,0,1,69,60.17Z"/></g>
</svg>
