<svg xmlns="http://www.w3.org/2000/svg" viewBox="0 0 64 64" width="64" height="64">
  <!-- tapa -->
<g transform="translate(2, 0)">
  <path d="M14 14h36a2 2 0 0 1 2 2v0a1 1 0 0 1-1 1H13a1 1 0 0 1-1-1v0a2 2 0 0 1 2-2z"
        fill="none" stroke="hsl(293.541deg, 18.3%, 70.2%)" stroke-width="2" />
  <rect x="28" y="10" width="8" height="3" rx="1" fill="none" stroke="hsl(293.541deg, 18.3%, 70.2%)" stroke-width="2" />
</g>
  <!-- cuerpo -->
  <path d="M18 20l4 30a2 2 0 0 0 2 2h20a2 2 0 0 0 2-2l4-30"
        fill="none" stroke="hsl(293.541deg, 18.3%, 70.2%)" stroke-width="2" />
  <!-- líneas interiores -->
<g transform="translate(2, 0)">
  <path d="M26 26v18" stroke="hsl(293.541deg, 18.3%, 70.2%)" stroke-width="1.6" />
  <path d="M32 26v18" stroke="hsl(293.541deg, 18.3%, 70.2%)" stroke-width="1.6" />
  <path d="M38 26v18" stroke="hsl(293.541deg, 18.3%, 70.2%)" stroke-width="1.6" />
</g>
</svg>
